# xmcd
#
# Track frame offsets: 
#        182
#        11560
#        21237
#        31592
#        43962
#        53055
#        67190
#        77862
#        89352
#        101270
#
# Disc length: 1473 seconds
#
# Revision: 5
# Processed by: cddbd v1.5.2PL0 Copyright (c) Steve Scherf et al.
# Submitted via: ExactAudioCopy v1.1
#
DISCID=7805bf0a
DTITLE=Canned Heat - Eternal boogie
DYEAR=2004
DGENRE=Bluesrock
TTITLE0=Spoonful
TTITLE1=Big road blues
TTITLE2=Rollin' and tumblin'
TTITLE3=Got my mojo working
TTITLE4=Pretty thing
TTITLE5=Louise
TTITLE6=Dimples
TTITLE7=Can't hold on
TTITLE8=Straight ahead
TTITLE9=Rollin' and tumbiln' [harmonica version]
EXTD=
EXTT0=
EXTT1=
EXTT2=
EXTT3=
EXTT4=
EXTT5=
EXTT6=
EXTT7=
EXTT8=
EXTT9=
PLAYORDER=
